<svg width="24" height="25" viewBox="0 0 24 25" fill="none" xmlns="http://www.w3.org/2000/svg">
<path d="M16.1752 11.0471L11.2752 6.14707C11.0752 5.94707 10.9794 5.71374 10.9877 5.44707C10.996 5.1804 11.1002 4.94707 11.3002 4.74707C11.5002 4.56374 11.7335 4.4679 12.0002 4.45957C12.2669 4.45124 12.5002 4.54707 12.7002 4.74707L19.3002 11.3471C19.4002 11.4471 19.471 11.5554 19.5127 11.6721C19.5544 11.7887 19.5752 11.9137 19.5752 12.0471C19.5752 12.1804 19.5544 12.3054 19.5127 12.4221C19.471 12.5387 19.4002 12.6471 19.3002 12.7471L12.7002 19.3471C12.5169 19.5304 12.2877 19.6221 12.0127 19.6221C11.7377 19.6221 11.5002 19.5304 11.3002 19.3471C11.1002 19.1471 11.0002 18.9096 11.0002 18.6346C11.0002 18.3596 11.1002 18.1221 11.3002 17.9221L16.1752 13.0471L5.0002 13.0471C4.71686 13.0471 4.47936 12.9512 4.2877 12.7596C4.09603 12.5679 4.0002 12.3304 4.0002 12.0471C4.0002 11.7637 4.09603 11.5262 4.2877 11.3346C4.47936 11.1429 4.71686 11.0471 5.0002 11.0471L16.1752 11.0471Z" fill="#FF1744"/>
</svg>
