<svg width="48" height="48" viewBox="0 0 48 48" fill="none" xmlns="http://www.w3.org/2000/svg">
<path d="M8 44C7.43333 44 6.95833 43.8083 6.575 43.425C6.19167 43.0417 6 42.5667 6 42V34C6 32.9 6.39167 31.9583 7.175 31.175C7.95833 30.3917 8.9 30 10 30H38C39.1 30 40.0417 30.3917 40.825 31.175C41.6083 31.9583 42 32.9 42 34V42C42 42.5667 41.8083 43.0417 41.425 43.425C41.0417 43.8083 40.5667 44 40 44H8ZM10 26V20C10 18.9 10.3917 17.9583 11.175 17.175C11.9583 16.3917 12.9 16 14 16H22V13.1C21.4 12.7 20.9167 12.2167 20.55 11.65C20.1833 11.0833 20 10.4 20 9.6C20 9.1 20.1 8.60833 20.3 8.125C20.5 7.64167 20.8 7.2 21.2 6.8L24 4L26.8 6.8C27.2 7.2 27.5 7.64167 27.7 8.125C27.9 8.60833 28 9.1 28 9.6C28 10.4 27.8167 11.0833 27.45 11.65C27.0833 12.2167 26.6 12.7 26 13.1V16H34C35.1 16 36.0417 16.3917 36.825 17.175C37.6083 17.9583 38 18.9 38 20V26H10Z" fill="#1B1B1B"/>
</svg>
