<svg width="56" height="56" viewBox="0 0 56 56" fill="none" xmlns="http://www.w3.org/2000/svg">
<g clip-path="url(#clip0_4543_137)">
<path d="M28 56C43.464 56 56 43.464 56 28C56 12.536 43.464 0 28 0C12.536 0 0 12.536 0 28C0 43.464 12.536 56 28 56Z" fill="#FF1744"/>
<path fill-rule="evenodd" clip-rule="evenodd" d="M15.6456 14.804V24.328C17.0952 22.6 18.8336 21.728 20.8496 21.728C21.888 21.728 22.8176 21.9264 23.652 22.32C24.4888 22.712 25.1144 23.2136 25.536 23.8216C25.96 24.4376 26.248 25.1096 26.4024 25.852C26.5568 26.5904 26.6344 27.74 26.6344 29.2976V39.4816H22.128V30.312C22.128 28.4912 22.0464 27.3384 21.8752 26.848C21.704 26.356 21.4032 25.968 20.9712 25.6824C20.5368 25.3904 19.9952 25.2456 19.344 25.2456C18.5984 25.2456 17.928 25.4328 17.3456 25.8032C16.752 26.1768 16.3232 26.7352 16.0536 27.4808C15.7776 28.2272 15.6408 29.3288 15.6456 30.7888L15.6408 39.4848H11.1416V14.8048H15.6456" fill="white"/>
<path fill-rule="evenodd" clip-rule="evenodd" d="M33.3879 14.804V24.328C34.8383 22.6 36.5751 21.728 38.5911 21.728C39.6255 21.728 40.5615 21.9264 41.3975 22.32C42.2295 22.712 42.8559 23.2136 43.2775 23.8216C43.7015 24.4376 43.9895 25.1096 44.1431 25.852C44.2975 26.5904 44.3751 27.74 44.3751 29.2976V39.4816H39.8727V30.312C39.8727 28.4912 39.7895 27.3384 39.6167 26.848C39.4455 26.356 39.1447 25.968 38.7111 25.6824C38.2815 25.3904 37.7367 25.2456 37.0847 25.2456C36.3391 25.2456 35.6687 25.4328 35.0863 25.8032C34.4991 26.1768 34.0703 26.7352 33.7951 27.4808C33.5247 28.2272 33.3871 29.3288 33.3871 30.7888V39.4848H28.8887V14.8048H33.3895" fill="white"/>
</g>
<defs>
<clipPath id="clip0_4543_137">
<rect width="56" height="56" fill="white"/>
</clipPath>
</defs>
</svg>
