<svg width="48" height="48" viewBox="0 0 48 48" fill="none" xmlns="http://www.w3.org/2000/svg">
<path d="M24 38C19.3 34.5333 15.7917 31.1667 13.475 27.9C11.1583 24.6333 10 21.4333 10 18.3C10 15.9333 10.425 13.8583 11.275 12.075C12.125 10.2917 13.2167 8.8 14.55 7.6C15.8833 6.4 17.3833 5.5 19.05 4.9C20.7167 4.3 22.3667 4 24 4C25.6333 4 27.2833 4.3 28.95 4.9C30.6167 5.5 32.1167 6.4 33.45 7.6C34.7833 8.8 35.875 10.2917 36.725 12.075C37.575 13.8583 38 15.9333 38 18.3C38 21.4333 36.8417 24.6333 34.525 27.9C32.2083 31.1667 28.7 34.5333 24 38ZM24 22C25.1 22 26.0417 21.6083 26.825 20.825C27.6083 20.0417 28 19.1 28 18C28 16.9 27.6083 15.9583 26.825 15.175C26.0417 14.3917 25.1 14 24 14C22.9 14 21.9583 14.3917 21.175 15.175C20.3917 15.9583 20 16.9 20 18C20 19.1 20.3917 20.0417 21.175 20.825C21.9583 21.6083 22.9 22 24 22ZM10 44V40H38V44H10Z" fill="white"/>
</svg>
