<svg width="107" height="46" viewBox="0 0 107 46" fill="none" xmlns="http://www.w3.org/2000/svg">
<g id="Logo">
<g id="fin tech">
<path d="M8.30244 4.38309V7.95837H21.6611V12.3415H8.30244V20.5541H2.75252V0H22.3941V4.38309H8.30244Z" fill="#212121"/>
<path d="M27.1363 20.5541V0H32.6862V20.5541H27.1363Z" fill="#FF1744"/>
<path d="M58.5509 20.5541L44.6836 6.43252V20.5541H39.1337V0H45.1623L59.0446 14.1815V0H64.5646V20.5541H58.5509Z" fill="#FF1744"/>
<path d="M14.2712 29.3652V45.4465H8.7213V29.3652H0V24.8924H23.0075V29.3652H14.2712Z" fill="#212121"/>
<path d="M26.6875 45.4465V24.8924H47.4959V29.2754H32.387V32.6712H46.7181V37.0543H32.387V41.0634H47.7054V45.4465H26.6875Z" fill="#212121"/>
<path d="M75.7242 44.0403C75.0062 44.3395 74.2831 44.6088 73.5551 44.8481C72.8271 45.0875 72.0742 45.2919 71.2963 45.4615C70.5184 45.641 69.6956 45.7756 68.828 45.8654C67.9703 45.9551 67.0478 46 66.0605 46C63.9662 46 62.0364 45.7756 60.2712 45.3268C58.516 44.878 57.0001 44.2049 55.7236 43.3073C54.457 42.3998 53.4697 41.2728 52.7616 39.9265C52.0536 38.5702 51.6995 36.9895 51.6995 35.1844C51.6995 33.3793 52.0536 31.8036 52.7616 30.4572C53.4697 29.1009 54.457 27.974 55.7236 27.0764C57.0001 26.1689 58.516 25.4907 60.2712 25.042C62.0364 24.5932 63.9662 24.3688 66.0605 24.3688C67.0478 24.3688 67.9703 24.4137 68.828 24.5034C69.6956 24.5932 70.5184 24.7278 71.2963 24.9073C72.0742 25.0769 72.8271 25.2813 73.5551 25.5206C74.2831 25.76 75.0062 26.0293 75.7242 26.3285V31.3249C75.1558 31.0157 74.5574 30.7115 73.9291 30.4124C73.3008 30.1032 72.6077 29.8289 71.8498 29.5896C71.0918 29.3403 70.2591 29.1408 69.3515 28.9912C68.444 28.8317 67.4218 28.7519 66.2849 28.7519C64.5396 28.7519 63.0886 28.9314 61.9317 29.2904C60.7848 29.6494 59.8673 30.1281 59.1792 30.7265C58.4911 31.3249 58.0074 32.013 57.7281 32.7909C57.4489 33.5588 57.3093 34.3566 57.3093 35.1844C57.3093 35.7329 57.3691 36.2764 57.4888 36.815C57.6085 37.3435 57.8079 37.8472 58.0872 38.3259C58.3664 38.7946 58.7304 39.2284 59.1792 39.6273C59.628 40.0262 60.1865 40.3703 60.8546 40.6595C61.5228 40.9487 62.3007 41.1781 63.1883 41.3476C64.0859 41.5072 65.118 41.587 66.2849 41.587C67.4218 41.587 68.444 41.5172 69.3515 41.3776C70.2591 41.228 71.0918 41.0335 71.8498 40.7941C72.6077 40.5548 73.3008 40.2855 73.9291 39.9863C74.5574 39.6772 75.1558 39.363 75.7242 39.0439V44.0403Z" fill="#212121"/>
<path d="M100.572 45.4465V36.8748H86.4501V45.4465H80.9002V24.8924H86.4501V32.372H100.572V24.8924H106.122V45.4465H100.572Z" fill="#212121"/>
</g>
</g>
</svg>
