<svg width="64" height="64" viewBox="0 0 64 64" fill="none" xmlns="http://www.w3.org/2000/svg">
<rect width="64" height="64" rx="20" fill="#FF1744"/>
<path d="M18 37.6L23.0334 29.5333C23.2778 29.1555 23.6167 28.95 24.0501 28.9166C24.4834 28.8833 24.8556 29.0333 25.1667 29.3666L28.0001 32.6666L32.2334 25.7666C32.4778 25.3444 32.8501 25.1333 33.3501 25.1333C33.85 25.1333 34.2334 25.3333 34.5001 25.7333L36.9667 29.4333C36.4556 29.4555 35.9723 29.5166 35.5167 29.6166C35.0612 29.7166 34.6112 29.8555 34.1667 30.0333L33.4334 28.9333L29.3334 35.6C29.0889 35.9777 28.7445 36.1889 28.3001 36.2333C27.8556 36.2777 27.4778 36.1222 27.1667 35.7666L24.3334 32.4666L20.2667 39.0333C20.0667 39.3666 19.7723 39.5722 19.3834 39.65C18.9945 39.7277 18.6445 39.6444 18.3334 39.4C18.0445 39.2 17.8723 38.9277 17.8167 38.5833C17.7612 38.2389 17.8223 37.9111 18 37.6ZM44.7667 46.6666L40.6 42.5C40.1556 42.8111 39.6612 43.0444 39.1167 43.2C38.5723 43.3555 38.0112 43.4333 37.4334 43.4333C35.7667 43.4333 34.35 42.85 33.1834 41.6833C32.0167 40.5166 31.4334 39.1 31.4334 37.4333C31.4334 35.7666 32.0167 34.35 33.1834 33.1833C34.35 32.0166 35.7667 31.4333 37.4334 31.4333C39.1 31.4333 40.5167 32.0166 41.6834 33.1833C42.85 34.35 43.4334 35.7666 43.4334 37.4333C43.4334 38.0111 43.3556 38.5722 43.2001 39.1166C43.0445 39.6611 42.8112 40.1666 42.5 40.6333L46.6667 44.7666L44.7667 46.6666ZM37.4334 40.7666C38.3667 40.7666 39.1556 40.4444 39.8001 39.8C40.4445 39.1555 40.7667 38.3666 40.7667 37.4333C40.7667 36.5 40.4445 35.7111 39.8001 35.0666C39.1556 34.4222 38.3667 34.1 37.4334 34.1C36.5 34.1 35.7112 34.4222 35.0667 35.0666C34.4223 35.7111 34.1 36.5 34.1 37.4333C34.1 38.3666 34.4223 39.1555 35.0667 39.8C35.7112 40.4444 36.5 40.7666 37.4334 40.7666ZM40.4 30.1C39.9778 29.9222 39.5389 29.7777 39.0834 29.6666C38.6278 29.5555 38.1556 29.4889 37.6667 29.4666L43.7334 19.8666C43.9334 19.5555 44.2223 19.3555 44.6 19.2666C44.9778 19.1777 45.3223 19.2555 45.6334 19.5C45.9223 19.7 46.1 19.9722 46.1667 20.3166C46.2334 20.6611 46.1778 20.9889 46 21.3L40.4 30.1Z" fill="white"/>
</svg>
