<svg width="384" height="298" viewBox="0 0 384 298" fill="none" xmlns="http://www.w3.org/2000/svg">
<path fill-rule="evenodd" clip-rule="evenodd" d="M85.2224 257.353L79.1062 258.542C53.0836 263.6 27.8876 246.605 22.8293 220.582L1.15882 109.097C-3.89947 83.0749 13.0955 57.8788 39.1181 52.8205L304.894 1.15894C330.916 -3.89934 356.112 13.0956 361.171 39.1182L382.841 150.603C385.151 162.486 382.862 174.197 377.215 183.896C377.444 192.049 375.579 199.921 372.038 206.892C371.597 212.174 370.284 217.274 368.217 222.014C367.735 225.881 366.785 229.637 365.415 233.21C364.927 235.73 364.24 238.193 363.366 240.577C358.794 257.795 344.775 271.78 326.113 275.407L214.628 297.078C205.994 298.756 197.451 298.006 189.704 295.305C184.734 294.594 179.957 293.109 175.529 290.954C168.02 290.126 160.912 287.534 154.725 283.53C144.302 283.233 134.461 279.532 126.53 273.323C110.578 275.109 95.3032 268.771 85.2224 257.353ZM40.6446 60.6735L306.42 9.01195C328.106 4.79672 349.102 18.9592 353.318 40.6447L374.988 152.129C376.057 157.627 375.944 163.081 374.827 168.228L354.699 64.6762C349.641 38.6536 324.445 21.6586 298.422 26.7169L90.4376 67.1449C64.415 72.2032 47.42 97.3993 52.4783 123.422L74.1224 234.771C75.2132 240.383 77.2404 245.575 80.0104 250.216L77.5797 250.689C55.8942 254.904 34.8975 240.741 30.6823 219.056L9.01183 107.571C4.7966 85.8855 18.9591 64.8887 40.6446 60.6735ZM369.087 181.826C369.065 181.859 369.043 181.893 369.021 181.926L349.642 82.2292C344.584 56.2066 319.388 39.2116 293.365 44.2699L125.307 76.9371C99.2844 81.9954 82.2895 107.192 87.3478 133.214L108.995 244.582L88.4731 248.571C85.3449 244.112 83.082 238.938 81.9755 233.245L60.3313 121.895C56.1161 100.21 70.2785 79.2132 91.9641 74.998L299.948 34.5699C321.634 30.3547 342.631 44.5171 346.846 66.2026L368.49 177.552C368.768 178.981 368.966 180.408 369.087 181.826ZM111.154 252.312C112.962 257.181 115.515 261.625 118.653 265.539C109.645 264.961 101.232 261.337 94.6709 255.516L111.154 252.312ZM119.137 250.76L132.85 248.095L133.685 252.391C134.431 256.225 135.613 259.864 137.171 263.265L128.93 264.867C124.755 261 121.376 256.22 119.137 250.76ZM131.324 240.242L116.849 243.055L95.2008 131.688C90.9856 110.002 105.148 89.0054 126.834 84.7901L294.892 52.123C316.138 47.993 336.723 61.5043 341.513 82.448C331.963 64.0426 311.134 53.3026 289.746 57.46L149.974 84.6288C123.951 89.6871 106.956 114.883 112.015 140.906L131.324 240.242ZM140.703 246.568L141.538 250.864C142.29 254.73 143.575 258.358 145.302 261.684L150.277 260.717C149.932 259.479 149.633 258.218 149.384 256.934L147.126 245.32L140.703 246.568ZM145.6 237.467L139.177 238.715L119.868 139.379C115.653 117.694 129.815 96.6971 151.501 92.4819L158.657 91.0907C136.68 98.9243 123.126 121.847 127.714 145.45L145.6 237.467ZM154.979 243.793L157.237 255.408C157.487 256.694 157.796 257.954 158.161 259.185L158.357 259.147L155.358 243.72L154.979 243.793ZM153.832 235.867L153.453 235.94L135.567 143.923C132.847 129.932 137.777 116.228 147.441 107.133C138.183 117.887 133.763 132.623 136.681 147.633L153.832 235.867ZM161.685 234.34L144.534 146.107C140.319 124.421 154.481 103.425 176.167 99.2095L287.651 77.5391C309.337 73.3238 330.334 87.4863 334.549 109.172L351.527 196.517C348.951 197.621 346.219 198.47 343.355 199.027L161.685 234.34ZM163.211 242.193L344.882 206.88C347.729 206.327 350.469 205.532 353.083 204.521L355.233 215.584C350.149 219.942 343.9 223.081 336.857 224.45L166.21 257.62L163.211 242.193ZM157.324 275.529C155.724 273.273 154.31 270.863 153.107 268.317L150.114 268.899C152.209 271.398 154.595 273.623 157.208 275.532L157.324 275.529ZM321.639 71.6674C314.609 66.8115 306.037 64.1974 297.094 64.6138C305.931 64.695 314.38 67.2265 321.639 71.6674ZM138.084 271.237C139.842 272.128 141.669 272.891 143.55 273.516C142.784 272.575 142.052 271.603 141.356 270.601L138.084 271.237ZM172.795 273.051C171.11 270.669 169.673 268.082 168.527 265.319L338.384 232.303C345.216 230.975 351.426 228.258 356.778 224.504C356.823 224.976 356.86 225.448 356.888 225.919C351.15 234.062 342.379 240.087 331.827 242.138L172.795 273.051ZM179.04 279.987L333.353 249.991C339.269 248.841 344.718 246.651 349.547 243.646C344.017 249.465 336.687 253.68 328.207 255.328L188.436 282.497C186.673 282.84 184.914 283.061 183.169 283.166C181.727 282.198 180.347 281.135 179.04 279.987Z" fill="#FF1744"/>
</svg>
