<svg width="24" height="24" viewBox="0 0 24 24" fill="none" xmlns="http://www.w3.org/2000/svg">
<path d="M16.1752 11L11.2752 6.1C11.0752 5.9 10.9794 5.66667 10.9877 5.4C10.996 5.13333 11.1002 4.9 11.3002 4.7C11.5002 4.51667 11.7335 4.42083 12.0002 4.4125C12.2669 4.40417 12.5002 4.5 12.7002 4.7L19.3002 11.3C19.4002 11.4 19.471 11.5083 19.5127 11.625C19.5544 11.7417 19.5752 11.8667 19.5752 12C19.5752 12.1333 19.5544 12.2583 19.5127 12.375C19.471 12.4917 19.4002 12.6 19.3002 12.7L12.7002 19.3C12.5169 19.4833 12.2877 19.575 12.0127 19.575C11.7377 19.575 11.5002 19.4833 11.3002 19.3C11.1002 19.1 11.0002 18.8625 11.0002 18.5875C11.0002 18.3125 11.1002 18.075 11.3002 17.875L16.1752 13L5.0002 13C4.71686 13 4.47936 12.9042 4.2877 12.7125C4.09603 12.5208 4.0002 12.2833 4.0002 12C4.0002 11.7167 4.09603 11.4792 4.2877 11.2875C4.47936 11.0958 4.71686 11 5.0002 11L16.1752 11Z" fill="#FF1744"/>
</svg>
