<svg width="32" height="32" viewBox="0 0 32 32" fill="none" xmlns="http://www.w3.org/2000/svg">
<path d="M12 8.00001C11.2667 8.00001 10.6389 8.26112 10.1167 8.78334C9.59444 9.30556 9.33333 9.93334 9.33333 10.6667L9.33333 26.6667C9.33333 27.4 9.59444 28.0278 10.1167 28.55C10.6389 29.0722 11.2667 29.3333 12 29.3333L24 29.3333C24.7333 29.3333 25.3611 29.0722 25.8833 28.55C26.4056 28.0278 26.6667 27.4 26.6667 26.6667L26.6667 10.6667C26.6667 9.93334 26.4056 9.30556 25.8833 8.78334C25.3611 8.26112 24.7333 8.00001 24 8.00001L12 8.00001ZM6.66667 2.66668C5.93333 2.66668 5.30556 2.92779 4.78333 3.45001C4.26111 3.97223 4 4.60001 4 5.33334L4 24H6.66667L6.66667 5.33334L21.3333 5.33334V2.66668L6.66667 2.66668Z" fill="#FF1744"/>
</svg>
