<svg width="48" height="48" viewBox="0 0 48 48" fill="none" xmlns="http://www.w3.org/2000/svg">
<path d="M33.043 20.625C33.043 19.5894 32.2035 18.75 31.168 18.75H11.8555C10.8199 18.75 9.98047 19.5894 9.98047 20.625C9.98047 21.6606 10.8199 22.5 11.8555 22.5H31.168C32.2035 22.5 33.043 21.6606 33.043 20.625ZM11.8555 26.25C10.8199 26.25 9.98047 27.0894 9.98047 28.125C9.98047 29.1606 10.8199 30 11.8555 30H23.5846C24.6202 30 25.4596 29.1606 25.4596 28.125C25.4596 27.0894 24.6202 26.25 23.5846 26.25H11.8555Z" fill="#212121"/>
<path d="M16.2611 44.25H9.99023C7.92248 44.25 6.24023 42.5677 6.24023 40.5V7.5C6.24023 5.43225 7.92248 3.75 9.99023 3.75H33.0423C35.1101 3.75 36.7923 5.43225 36.7923 7.5V19.0312C36.7923 20.0668 37.6318 20.9062 38.6673 20.9062C39.7029 20.9062 40.5423 20.0668 40.5423 19.0312V7.5C40.5423 3.3645 37.1778 0 33.0423 0H9.99023C5.85473 0 2.49023 3.3645 2.49023 7.5V40.5C2.49023 44.6355 5.85473 48 9.99023 48H16.2611C17.2966 48 18.1361 47.1606 18.1361 46.125C18.1361 45.0894 17.2966 44.25 16.2611 44.25Z" fill="black"/>
<path d="M43.8641 27.1474C41.6709 24.9542 38.1024 24.9541 35.9106 27.1459L25.6166 37.4171C25.398 37.6353 25.2366 37.904 25.1469 38.1995L22.905 45.5799C22.8074 45.9012 22.7979 46.2427 22.8774 46.5689C22.9569 46.8951 23.1226 47.194 23.357 47.4343C23.5915 47.6746 23.8862 47.8475 24.2103 47.9351C24.5344 48.0226 24.8761 48.0215 25.1997 47.9318L32.7676 45.8355C33.0791 45.7493 33.363 45.5839 33.5917 45.3556L43.8642 35.1024C46.0573 32.9093 46.0573 29.3407 43.8641 27.1474ZM31.2914 42.3533L27.4841 43.4079L28.5983 39.7396L35.5441 32.8091L38.1963 35.4613L31.2914 42.3533ZM41.2138 32.4497L40.8506 32.8122L38.1988 30.1605L38.5609 29.7992C39.292 29.0681 40.4815 29.0681 41.2125 29.7992C41.9436 30.5303 41.9436 31.7198 41.2138 32.4497ZM31.168 11.25H11.8555C10.8199 11.25 9.98047 12.0894 9.98047 13.125C9.98047 14.1606 10.8199 15 11.8555 15H31.168C32.2035 15 33.043 14.1606 33.043 13.125C33.043 12.0894 32.2035 11.25 31.168 11.25Z" fill="black"/>
</svg>
