<svg width="48" height="48" viewBox="0 0 48 48" fill="none" xmlns="http://www.w3.org/2000/svg">
<path d="M32 21.2L40 16.6L32 12L24 16.6L32 21.2ZM32 27.3L37.5 24.1V19.9L32 23.1L26.5 19.9V24.1L32 27.3ZM4 40V34C5.66667 34 7.08333 34.5833 8.25 35.75C9.41667 36.9167 10 38.3333 10 40H4ZM14 40C14 37.2333 13.025 34.875 11.075 32.925C9.125 30.975 6.76667 30 4 30V26C7.9 26 11.2083 27.3583 13.925 30.075C16.6417 32.7917 18 36.1 18 40H14ZM22 40C22 37.5 21.525 35.1583 20.575 32.975C19.625 30.7917 18.3417 28.8917 16.725 27.275C15.1083 25.6583 13.2083 24.375 11.025 23.425C8.84167 22.475 6.5 22 4 22V18C7.03333 18 9.88333 18.575 12.55 19.725C15.2167 20.875 17.55 22.45 19.55 24.45C21.55 26.45 23.125 28.7833 24.275 31.45C25.425 34.1167 26 36.9667 26 40H22ZM30 40C30 36.4 29.3167 33.025 27.95 29.875C26.5833 26.725 24.725 23.975 22.375 21.625C20.025 19.275 17.275 17.4167 14.125 16.05C10.975 14.6833 7.6 14 4 14V12C4 10.9 4.39167 9.95833 5.175 9.175C5.95833 8.39167 6.9 8 8 8H40C41.1 8 42.0417 8.39167 42.825 9.175C43.6083 9.95833 44 10.9 44 12V36C44 37.1 43.6083 38.0417 42.825 38.825C42.0417 39.6083 41.1 40 40 40H30Z" fill="#1B1B1B"/>
</svg>
