<svg width="380" height="333" viewBox="0 0 380 333" fill="none" xmlns="http://www.w3.org/2000/svg">
<path fill-rule="evenodd" clip-rule="evenodd" d="M189.297 299.503C128.713 335.597 70.5012 343.652 41.5533 314.704C35.0185 308.169 30.3693 300.143 27.5027 290.935C19.3506 285.783 12.8014 279.215 8.18067 271.211C-7.58249 243.909 2.34236 205.522 30.8224 166.855C1.94399 127.951 -8.1975 89.2646 7.66113 61.7966C12.2822 53.7928 18.8319 47.2245 26.9848 42.0723C29.8514 32.8647 34.5005 24.8389 41.035 18.3044C70.0657 -10.7263 128.528 -2.54231 189.299 33.8155C250.419 -3.03911 309.352 -11.4668 338.538 17.719C345.073 24.2537 349.722 32.2797 352.589 41.4876C360.741 46.6397 367.29 53.2078 371.911 61.2114C387.849 88.8165 377.526 127.753 348.316 166.853C377.129 205.719 387.235 244.356 371.392 271.797C366.771 279.8 360.222 286.367 352.071 291.519C349.204 300.728 344.555 308.754 338.02 315.289C308.916 344.393 250.233 336.095 189.297 299.503ZM32.2759 287.272C27.3493 269.457 29.1722 246.541 37.8584 220.482C41.1239 210.686 45.3307 200.554 50.4338 190.236C70.4555 211.608 95.7882 232.368 125.194 250.641C138.934 263.517 153.073 275.04 167.267 285.094C142.768 293.196 119.316 297.901 98.2354 299.167C70.8162 300.812 48.2092 296.642 32.2759 287.272ZM172.998 289.071C117.746 308.073 66.9739 310.357 35.0029 295.066C37.5868 301.064 41.0921 306.323 45.5131 310.744C63.7078 328.939 96.0985 331.624 135.775 318.399C151.179 313.264 167.411 305.802 183.894 296.188C180.265 293.914 176.631 291.541 172.998 289.071ZM189.309 292.958C186.068 290.966 182.821 288.893 179.571 286.739C182.72 285.587 185.882 284.382 189.053 283.124C192.334 284.442 195.605 285.702 198.863 286.905C195.674 289.001 192.488 291.019 189.309 292.958ZM344.571 295.65C341.987 301.649 338.481 306.908 334.06 311.329C315.865 329.524 283.475 332.21 243.798 318.984C228.093 313.749 211.527 306.095 194.712 296.207C198.281 293.987 201.856 291.671 205.431 289.26C261.125 308.626 312.379 311.048 344.571 295.65ZM354.12 283.206C359.244 279.157 363.416 274.411 366.542 268.997C379.408 246.713 373.618 214.731 350.574 179.829C348.742 177.054 346.806 174.27 344.77 171.482C341.053 176.217 337.063 180.948 332.814 185.655C351.304 222.068 359.079 256.604 354.12 283.206ZM328.759 190.056C334.034 200.638 338.368 211.029 341.715 221.068C350.401 247.126 352.224 270.042 347.297 287.857C331.364 297.227 308.757 301.398 281.337 299.752C259.933 298.467 236.085 293.636 211.178 285.304C225.752 275.064 240.276 263.273 254.38 250.054C283.6 231.897 308.797 211.284 328.759 190.056ZM330.05 180.348C334.046 175.855 337.796 171.346 341.288 166.84C337.837 162.355 334.13 157.865 330.178 153.39C327.762 157.886 325.187 162.405 322.455 166.936C325.142 171.423 327.674 175.897 330.05 180.348ZM319.138 172.322C321.579 176.485 323.883 180.633 326.047 184.755C311.652 200.275 294.35 215.534 274.618 229.765C292.064 211.055 307 191.62 319.138 172.322ZM319.154 161.539C321.639 157.33 323.985 153.137 326.188 148.968C311.664 133.203 294.135 117.694 274.102 103.245C291.804 122.23 306.921 141.962 319.154 161.539ZM250.437 87.4202C253.585 90.3775 256.711 93.4081 259.814 96.5104C282.532 119.228 301.399 143.263 315.902 166.926C301.468 190.316 282.78 214.05 260.332 236.498C257.229 239.601 254.102 242.632 250.954 245.589C247.283 247.864 243.546 250.1 239.746 252.294C222.822 262.065 205.796 270.334 189.066 277.087C172.799 270.443 156.265 262.37 139.826 252.88C136.027 250.686 132.291 248.45 128.62 246.176C125.472 243.218 122.344 240.186 119.241 237.083C96.6062 214.448 77.7943 190.507 63.3123 166.928C77.8626 143.075 96.8535 118.831 119.759 95.925C122.862 92.8224 125.989 89.7915 129.137 86.8338C132.809 84.5589 136.546 82.3225 140.346 80.1284C156.61 70.7382 172.969 62.7355 189.069 56.1319C205.631 62.8462 222.479 71.0443 239.226 80.7137C243.027 82.9081 246.765 85.1449 250.437 87.4202ZM253.863 82.9555C283.413 101.318 308.849 122.192 328.916 143.674C334.354 132.843 338.811 122.208 342.233 111.941C350.919 85.8817 352.742 62.9657 347.815 45.1502C331.882 35.7805 309.275 31.6102 281.857 33.256C260.251 34.5528 236.156 39.4632 210.994 47.9399C225.456 58.1257 239.867 69.8378 253.863 82.9555ZM204.459 50.2137C212.67 55.8599 220.883 62.015 229.027 68.6577C218.174 62.8876 207.31 57.7206 196.534 53.1627C199.184 52.1413 201.827 51.1583 204.459 50.2137ZM205.266 43.9864C261.224 24.4028 312.765 21.8968 345.088 37.3567C342.505 31.3587 338.999 26.0997 334.578 21.6788C316.384 3.48419 283.993 0.798637 244.317 14.0241C228.445 19.3146 211.695 27.0755 194.697 37.1154C198.217 39.3131 201.741 41.604 205.266 43.9864ZM189.311 40.3685C192.441 42.2859 195.578 44.2797 198.718 46.3487C195.509 47.541 192.287 48.7887 189.056 50.0917C185.934 48.8476 182.821 47.6551 179.72 46.5146C182.92 44.3875 186.119 42.3384 189.311 40.3685ZM183.912 37.134C167.245 27.3683 150.828 19.7999 135.257 14.6094C95.5802 1.38399 63.1894 4.06954 44.9948 22.2642C40.574 26.6849 37.0689 31.9437 34.485 37.9415C66.589 22.5871 117.65 24.9551 173.167 44.175C176.75 41.733 180.334 39.3854 183.912 37.134ZM24.9357 50.3859C19.8102 54.4344 15.6372 59.1817 12.5109 64.5966C-0.354677 86.8804 5.43463 118.863 28.4784 153.764C30.3293 156.567 32.2855 159.379 34.3443 162.194C38.0353 157.43 42.0036 152.668 46.2358 147.928C27.7491 111.518 19.9759 76.985 24.9357 50.3859ZM50.2756 143.497C45.0101 132.929 40.6821 122.552 37.34 112.526C28.6537 86.4668 26.8309 63.5505 31.7579 45.735C47.6911 36.3656 70.2976 32.1955 97.7158 33.8412C119 35.1188 142.7 39.903 167.455 48.149C153.371 58.1477 139.345 69.5916 125.711 82.3691C95.9734 100.848 70.4016 121.871 50.2756 143.497ZM49.0054 153.247C45.0273 157.771 41.2994 162.309 37.8335 166.843C41.3405 171.396 45.1111 175.953 49.1335 180.495C51.5183 175.997 54.0641 171.474 56.7671 166.938C54.0187 162.357 51.4301 157.79 49.0054 153.247ZM60.0646 161.523C57.563 157.265 55.2047 153.024 52.9925 148.809C67.5935 132.896 85.2581 117.238 105.473 102.658C87.5987 121.827 72.3596 141.758 60.0646 161.523ZM60.0812 172.343C57.6243 176.554 55.3079 180.749 53.135 184.918C67.6075 200.584 85.0448 215.992 104.956 230.352C87.3397 211.459 72.2827 191.827 60.0812 172.343ZM150.03 264.938C160.56 270.536 171.1 275.566 181.56 280.023C178.974 281.003 176.397 281.945 173.829 282.851C165.875 277.35 157.92 271.373 150.03 264.938ZM25.4538 282.621C20.5282 256.202 28.163 221.957 46.3797 185.82C42.1038 181.065 38.0931 176.286 34.3612 171.504C32.4861 174.088 30.6976 176.67 28.9979 179.244C5.95416 214.145 0.16486 246.128 13.0304 268.411C16.1564 273.826 20.329 278.573 25.4538 282.621ZM332.957 148.089C337.163 152.781 341.11 157.494 344.786 162.211C347.008 159.194 349.111 156.182 351.094 153.179C374.138 118.277 379.927 86.2952 367.062 64.0114C363.935 58.5967 359.763 53.8496 354.638 49.8013C359.631 76.582 351.717 111.406 332.957 148.089ZM229.544 264.352C221.283 271.09 212.951 277.326 204.622 283.038C201.944 282.084 199.255 281.089 196.558 280.054C207.495 275.446 218.526 270.21 229.544 264.352ZM150.547 68.0715C158.322 61.7306 166.159 55.834 173.997 50.4002C176.519 51.2959 179.051 52.227 181.591 53.1935C171.29 57.5991 160.913 62.5602 150.547 68.0715Z" fill="white"/>
</svg>
