<svg width="1200" height="137" viewBox="0 0 1200 137" fill="none" xmlns="http://www.w3.org/2000/svg">
<path d="M39.3994 35.0439V60.0176H132.711V90.6338H39.3994V148H0.632812V4.42773H137.831V35.0439H39.3994Z" fill="#1B1B1B"/>
<path d="M170.955 148V4.42773H209.722V148H170.955Z" fill="#FF1744"/>
<path d="M390.389 148L293.524 49.3594V148H254.758V4.42773H296.868L393.837 103.486V4.42773H432.395V148H390.389Z" fill="#FF1744"/>
<path d="M557.785 35.6709V148H519.019V35.6709H458.1V4.42773H618.809V35.6709H557.785Z" fill="#1B1B1B"/>
<path d="M644.514 148V4.42773H789.862V35.0439H684.325V58.7637H784.429V89.3799H684.325V117.384H791.325V148H644.514Z" fill="#1B1B1B"/>
<path d="M987.039 138.178C982.023 140.268 976.973 142.148 971.888 143.82C966.802 145.492 961.543 146.92 956.109 148.104C950.676 149.358 944.929 150.299 938.868 150.926C932.877 151.553 926.434 151.866 919.537 151.866C904.908 151.866 891.429 150.299 879.099 147.164C866.838 144.029 856.25 139.327 847.333 133.058C838.486 126.718 831.59 118.847 826.644 109.442C821.698 99.9684 819.225 88.9271 819.225 76.3184C819.225 63.7096 821.698 52.7031 826.644 43.2988C831.59 33.8249 838.486 25.9531 847.333 19.6836C856.25 13.3444 866.838 8.60742 879.099 5.47266C891.429 2.33789 904.908 0.770508 919.537 0.770508C926.434 0.770508 932.877 1.08398 938.868 1.71094C944.929 2.33789 950.676 3.27832 956.109 4.53223C961.543 5.71647 966.802 7.14453 971.888 8.81641C976.973 10.4883 982.023 12.3691 987.039 14.459V49.3594C983.068 47.1999 978.889 45.0752 974.5 42.9854C970.111 40.8258 965.27 38.9102 959.976 37.2383C954.681 35.4967 948.865 34.1035 942.525 33.0586C936.186 31.944 929.046 31.3867 921.104 31.3867C908.914 31.3867 898.778 32.6406 890.697 35.1484C882.686 37.6562 876.277 41 871.471 45.1797C866.664 49.3594 863.285 54.166 861.335 59.5996C859.384 64.9635 858.409 70.5365 858.409 76.3184C858.409 80.1497 858.827 83.9463 859.663 87.708C860.499 91.4001 861.892 94.918 863.843 98.2617C865.793 101.536 868.336 104.566 871.471 107.353C874.605 110.139 878.507 112.542 883.174 114.562C887.841 116.583 893.275 118.185 899.475 119.369C905.744 120.484 912.954 121.041 921.104 121.041C929.046 121.041 936.186 120.553 942.525 119.578C948.865 118.533 954.681 117.175 959.976 115.503C965.27 113.831 970.111 111.95 974.5 109.86C978.889 107.701 983.068 105.507 987.039 103.277V138.178Z" fill="#1B1B1B"/>
<path d="M1160.6 148V88.126H1061.96V148H1023.19V4.42773H1061.96V56.6738H1160.6V4.42773H1199.37V148H1160.6Z" fill="#1B1B1B"/>
</svg>
