<svg width="360" height="43" viewBox="0 0 360 43" fill="none" xmlns="http://www.w3.org/2000/svg">
<path d="M7.90098 10.6611V18.4295H36.5467V27.953H7.90098V45.7974H-4V1.13762H38.1185V10.6611H7.90098Z" fill="#1B1B1B"/>
<path d="M48.2873 45.7974V1.13762H60.1883V45.7974H48.2873Z" fill="#FF1744"/>
<path d="M115.651 45.7974L85.9149 15.1141V45.7974H74.0139V1.13762H86.9414L116.71 31.9509V1.13762H128.547V45.7974H115.651Z" fill="#FF1744"/>
<path d="M167.04 10.8562V45.7974H155.139V10.8562H136.438V1.13762H185.774V10.8562H167.04Z" fill="#1B1B1B"/>
<path d="M193.665 45.7974V1.13762H238.286V10.6611H205.887V18.0394H236.618V27.5629H205.887V36.2739H238.735V45.7974H193.665Z" fill="#1B1B1B"/>
<path d="M298.817 42.742C297.278 43.3921 295.727 43.9772 294.166 44.4972C292.605 45.0173 290.99 45.4615 289.322 45.8299C287.654 46.2199 285.89 46.5124 284.029 46.7075C282.19 46.9025 280.212 47 278.095 47C273.604 47 269.466 46.5125 265.681 45.5373C261.917 44.5622 258.666 43.0996 255.929 41.1494C253.213 39.1775 251.096 36.7289 249.577 33.8036C248.059 30.8566 247.3 27.4221 247.3 23.5C247.3 19.5779 248.059 16.1542 249.577 13.2289C251.096 10.2819 253.213 7.83333 255.929 5.88313C258.666 3.91125 261.917 2.43776 265.681 1.46266C269.466 0.487552 273.604 0 278.095 0C280.212 0 282.19 0.0975104 284.029 0.292531C285.89 0.487552 287.654 0.780083 289.322 1.17012C290.99 1.5385 292.605 1.98271 294.166 2.50277C295.727 3.02282 297.278 3.60788 298.817 4.25795V15.1141C297.598 14.4424 296.315 13.7815 294.968 13.1314C293.621 12.4597 292.134 11.8638 290.509 11.3437C288.884 10.802 287.098 10.3686 285.152 10.0436C283.206 9.69687 281.014 9.52351 278.576 9.52351C274.834 9.52351 271.722 9.91356 269.241 10.6936C266.782 11.4737 264.814 12.5138 263.339 13.814C261.863 15.1141 260.826 16.6093 260.227 18.2994C259.629 19.968 259.329 21.7015 259.329 23.5C259.329 24.6918 259.457 25.8728 259.714 27.0429C259.971 28.1913 260.398 29.2856 260.997 30.3257C261.596 31.3442 262.377 32.2868 263.339 33.1535C264.301 34.0203 265.499 34.7679 266.932 35.3963C268.365 36.0247 270.033 36.5231 271.936 36.8914C273.861 37.2381 276.074 37.4115 278.576 37.4115C281.014 37.4115 283.206 37.2598 285.152 36.9564C287.098 36.6314 288.884 36.2089 290.509 35.6888C292.134 35.1687 293.621 34.5837 294.968 33.9336C296.315 33.2619 297.598 32.5793 298.817 31.8859V42.742Z" fill="#1B1B1B"/>
<path d="M352.099 45.7974V27.1729H321.817V45.7974H309.916V1.13762H321.817V17.3893H352.099V1.13762H364V45.7974H352.099Z" fill="#1B1B1B"/>
</svg>
