<svg width="48" height="48" viewBox="0 0 48 48" fill="none" xmlns="http://www.w3.org/2000/svg">
<path d="M24 42C23.5333 42 23.0583 41.9151 22.575 41.7454C22.0917 41.5757 21.6667 41.3041 21.3 40.9307L17.85 37.7228C14.3167 34.43 11.125 31.1627 8.275 27.9208C5.425 24.6789 4 21.1061 4 17.2023C4 14.0113 5.05 11.3465 7.15 9.20792C9.25 7.06931 11.8667 6 15 6C16.7667 6 18.4333 6.3819 20 7.14569C21.5667 7.90948 22.9 8.95332 24 10.2772C25.1 8.95332 26.4333 7.90948 28 7.14569C29.5667 6.3819 31.2333 6 33 6C36.1333 6 38.75 7.06931 40.85 9.20792C42.95 11.3465 44 14.0113 44 17.2023C44 21.1061 42.5833 24.6874 39.75 27.9463C36.9167 31.2051 33.7 34.4809 30.1 37.7737L26.7 40.9307C26.3333 41.3041 25.9083 41.5757 25.425 41.7454C24.9417 41.9151 24.4667 42 24 42Z" fill="white"/>
</svg>
