<svg width="298" height="138" viewBox="0 0 298 138" fill="none" xmlns="http://www.w3.org/2000/svg">
<path fill-rule="evenodd" clip-rule="evenodd" d="M148.448 235.015C100.89 263.348 55.1935 269.671 32.4694 246.947C27.3395 241.817 23.69 235.517 21.4397 228.288C15.0402 224.244 9.89914 219.088 6.27188 212.806C-6.1022 191.373 1.68881 161.24 24.0457 130.886C1.37609 100.346 -6.58499 69.9775 5.86404 48.4151C9.49155 42.1321 14.6331 36.976 21.0331 32.9315C23.2834 25.7035 26.9329 19.4033 32.0625 14.2737C54.8516 -8.51539 100.745 -2.09094 148.45 26.4499C196.429 -2.48093 242.692 -9.09668 265.603 13.8142C270.732 18.944 274.382 25.2443 276.632 32.4725C283.032 36.5169 288.173 41.6729 291.8 47.9557C304.312 69.6257 296.208 100.19 273.278 130.884C295.896 161.394 303.829 191.724 291.393 213.265C287.766 219.547 282.625 224.703 276.226 228.747C273.975 235.976 270.326 242.277 265.196 247.407C242.349 270.253 196.283 263.739 148.448 235.015ZM25.1867 225.413C21.3193 211.428 22.7502 193.439 29.5689 172.983C32.1323 165.293 35.4347 157.34 39.4406 149.24C55.1576 166.017 75.0438 182.314 98.1274 196.658C108.913 206.766 120.012 215.811 131.155 223.703C111.923 230.063 93.5134 233.757 76.9648 234.751C55.4408 236.043 37.6943 232.769 25.1867 225.413ZM135.653 226.825C92.281 241.742 52.4245 243.535 27.3273 231.531C29.3557 236.24 32.1074 240.368 35.5779 243.839C49.8607 258.122 75.2874 260.23 106.433 249.848C118.526 245.817 131.268 239.959 144.207 232.412C141.358 230.627 138.505 228.764 135.653 226.825ZM148.457 229.877C145.913 228.313 143.364 226.685 140.813 224.995C143.285 224.091 145.767 223.145 148.257 222.157C150.832 223.191 153.4 224.181 155.957 225.126C153.454 226.77 150.953 228.355 148.457 229.877ZM270.338 231.99C268.31 236.699 265.558 240.828 262.087 244.298C247.804 258.581 222.378 260.689 191.232 250.307C178.903 246.198 165.899 240.189 152.699 232.427C155.501 230.684 158.307 228.866 161.113 226.974C204.833 242.176 245.068 244.078 270.338 231.99ZM277.834 222.221C281.857 219.043 285.132 215.317 287.586 211.067C297.685 193.574 293.14 168.468 275.051 141.071C273.612 138.892 272.093 136.707 270.494 134.518C267.577 138.235 264.445 141.949 261.109 145.644C275.624 174.228 281.727 201.339 277.834 222.221ZM257.926 149.098C262.066 157.406 265.469 165.562 268.096 173.443C274.915 193.899 276.346 211.887 272.478 225.872C259.971 233.228 242.224 236.502 220.7 235.21C203.897 234.202 185.177 230.409 165.625 223.868C177.065 215.83 188.467 206.574 199.539 196.197C222.476 181.944 242.256 165.763 257.926 149.098ZM258.939 141.478C262.076 137.951 265.02 134.412 267.761 130.874C265.052 127.353 262.142 123.829 259.039 120.316C257.143 123.845 255.122 127.392 252.977 130.949C255.086 134.471 257.074 137.984 258.939 141.478ZM250.373 135.178C252.289 138.446 254.098 141.701 255.797 144.938C244.497 157.121 230.915 169.099 215.426 180.27C229.12 165.583 240.845 150.327 250.373 135.178ZM250.386 126.713C252.337 123.409 254.178 120.117 255.908 116.845C244.506 104.469 230.746 92.2943 215.02 80.9522C228.916 95.8551 240.783 111.345 250.386 126.713ZM196.443 68.5296C198.914 70.8511 201.369 73.2301 203.804 75.6654C221.637 93.4989 236.448 112.366 247.833 130.941C236.503 149.303 221.833 167.934 204.211 185.556C201.775 187.991 199.32 190.371 196.849 192.693C193.967 194.478 191.034 196.234 188.051 197.956C174.765 205.626 161.4 212.117 148.267 217.418C135.497 212.203 122.518 205.865 109.614 198.415C106.631 196.693 103.698 194.938 100.817 193.153C98.3456 190.831 95.8903 188.451 93.4542 186.015C75.6859 168.247 60.9185 149.452 49.5502 130.943C60.9722 112.219 75.8801 93.187 93.8611 75.2059C96.2967 72.7703 98.7516 70.3911 101.222 68.0693C104.105 66.2835 107.038 64.5279 110.022 62.8056C122.789 55.4343 135.63 49.1522 148.269 43.9683C161.271 49.239 174.496 55.6746 187.643 63.265C190.627 64.9876 193.561 66.7435 196.443 68.5296ZM199.133 65.0248C222.329 79.4394 242.297 95.8253 258.049 112.689C262.318 104.186 265.816 95.8379 268.503 87.7781C275.322 67.3219 276.753 49.3328 272.885 35.3477C260.378 27.9925 242.631 24.7188 221.108 26.0107C204.147 27.0287 185.232 30.8834 165.481 37.5376C176.833 45.5334 188.145 54.7275 199.133 65.0248ZM160.35 39.3225C166.796 43.7548 173.243 48.5865 179.636 53.8011C171.117 49.2716 162.588 45.2155 154.129 41.6375C156.21 40.8357 158.284 40.064 160.35 39.3225ZM160.984 34.4341C204.911 19.061 245.371 17.0938 270.744 29.2298C268.716 24.5214 265.964 20.3931 262.494 16.9227C248.211 2.63987 222.785 0.531704 191.639 10.9137C179.18 15.0667 166.031 21.159 152.687 29.0404C155.45 30.7655 158.217 32.5639 160.984 34.4341ZM148.459 31.594C150.916 33.0992 153.379 34.6643 155.844 36.2885C153.325 37.2245 150.796 38.2039 148.259 39.2268C145.808 38.2501 143.364 37.3141 140.93 36.4187C143.443 34.7489 145.953 33.1404 148.459 31.594ZM144.221 29.0549C131.137 21.3889 118.25 15.4477 106.026 11.3732C74.8805 0.991203 49.4538 3.09936 35.171 17.3822C31.7007 20.8524 28.9491 24.9806 26.9208 29.6888C52.1224 17.6356 92.2054 19.4945 135.786 34.5822C138.599 32.6652 141.412 30.8223 144.221 29.0549ZM19.4246 39.4577C15.4011 42.6357 12.1253 46.3624 9.67109 50.6131C-0.428365 68.1059 4.11624 93.2119 22.2056 120.609C23.6585 122.81 25.1942 125.017 26.8103 127.227C29.7077 123.487 32.8229 119.749 36.1452 116.029C21.6331 87.4468 15.5312 60.338 19.4246 39.4577ZM39.3164 112.55C35.183 104.254 31.7855 96.1082 29.162 88.2376C22.3432 67.7812 20.9123 49.7919 24.78 35.8067C37.2876 28.4518 55.0337 25.1783 76.557 26.4701C93.2648 27.473 111.87 31.2287 131.302 37.7017C120.246 45.5507 109.236 54.5342 98.5331 64.5645C75.1892 79.0705 55.1153 95.5732 39.3164 112.55ZM38.3193 120.203C35.1965 123.755 32.2701 127.317 29.5494 130.876C32.3023 134.451 35.2623 138.028 38.4198 141.593C40.2919 138.062 42.2904 134.512 44.4122 130.951C42.2547 127.355 40.2227 123.77 38.3193 120.203ZM47.0008 126.7C45.037 123.358 43.1857 120.029 41.4492 116.72C52.9109 104.228 66.7777 91.9362 82.646 80.4917C68.615 95.5393 56.6523 111.185 47.0008 126.7ZM47.0138 135.194C45.0851 138.5 43.2668 141.793 41.561 145.066C52.9219 157.363 66.6103 169.458 82.2404 180.731C68.4117 165.9 56.592 150.489 47.0138 135.194ZM117.624 207.881C125.889 212.275 134.164 216.224 142.375 219.723C140.345 220.492 138.321 221.232 136.306 221.943C130.062 217.625 123.817 212.933 117.624 207.881ZM19.8313 221.762C15.9647 201.024 21.958 174.141 36.2581 145.773C32.9015 142.041 29.7532 138.289 26.8236 134.535C25.3516 136.564 23.9477 138.591 22.6134 140.611C4.52408 168.009 -0.0205289 193.115 10.0789 210.608C12.5329 214.858 15.8083 218.584 19.8313 221.762ZM261.221 116.155C264.523 119.837 267.622 123.538 270.507 127.241C272.251 124.872 273.902 122.507 275.459 120.15C293.548 92.7524 298.093 67.6465 287.993 50.1537C285.539 45.9032 282.264 42.1767 278.241 38.9988C282.16 60.0216 275.948 87.3582 261.221 116.155ZM180.042 207.421C173.557 212.71 167.016 217.606 160.478 222.09C158.376 221.34 156.266 220.559 154.148 219.747C162.734 216.13 171.393 212.019 180.042 207.421ZM118.029 53.3409C124.133 48.3633 130.285 43.7344 136.437 39.4689C138.417 40.172 140.405 40.903 142.399 41.6616C134.313 45.1201 126.167 49.0145 118.029 53.3409Z" fill="white" fill-opacity="0.2"/>
</svg>
