<svg width="64" height="64" viewBox="0 0 64 64" fill="none" xmlns="http://www.w3.org/2000/svg">
<rect width="64" height="64" rx="20" fill="#FF1744"/>
<path d="M32.0003 41.3332C28.867 39.0221 26.5281 36.7776 24.9837 34.5998C23.4392 32.4221 22.667 30.2887 22.667 28.1998C22.667 26.6221 22.9503 25.2387 23.517 24.0498C24.0837 22.8609 24.8114 21.8665 25.7003 21.0665C26.5892 20.2665 27.5892 19.6665 28.7003 19.2665C29.8114 18.8665 30.9114 18.6665 32.0003 18.6665C33.0892 18.6665 34.1892 18.8665 35.3003 19.2665C36.4114 19.6665 37.4114 20.2665 38.3003 21.0665C39.1892 21.8665 39.917 22.8609 40.4837 24.0498C41.0503 25.2387 41.3337 26.6221 41.3337 28.1998C41.3337 30.2887 40.5614 32.4221 39.017 34.5998C37.4725 36.7776 35.1337 39.0221 32.0003 41.3332ZM32.0003 30.6665C32.7337 30.6665 33.3614 30.4054 33.8837 29.8832C34.4059 29.3609 34.667 28.7332 34.667 27.9998C34.667 27.2665 34.4059 26.6387 33.8837 26.1165C33.3614 25.5943 32.7337 25.3332 32.0003 25.3332C31.267 25.3332 30.6392 25.5943 30.117 26.1165C29.5948 26.6387 29.3337 27.2665 29.3337 27.9998C29.3337 28.7332 29.5948 29.3609 30.117 29.8832C30.6392 30.4054 31.267 30.6665 32.0003 30.6665ZM22.667 45.3332V42.6665H41.3337V45.3332H22.667Z" fill="white"/>
</svg>
