<svg width="350" height="175" viewBox="0 0 350 175" fill="none" xmlns="http://www.w3.org/2000/svg">
<g clip-path="url(#clip0_4157_12662)">
<path d="M83.5 87.5C83.5 111.176 78.6932 132.413 71.1082 147.583C63.4036 162.992 53.4999 171 43.75 171C34.0001 171 24.0964 162.992 16.3918 147.583C8.80683 132.413 4 111.176 4 87.5C4 63.8239 8.80683 42.5869 16.3918 27.417C24.0964 12.0078 34.0001 4 43.75 4C53.4999 4 63.4036 12.0078 71.1082 27.417C78.6932 42.5869 83.5 63.8239 83.5 87.5Z" stroke="#FF8A80" stroke-width="8"/>
<path d="M127.25 87.5C127.25 111.176 122.443 132.413 114.858 147.583C107.154 162.992 97.2499 171 87.5 171C77.7501 171 67.8464 162.992 60.1418 147.583C52.5568 132.413 47.75 111.176 47.75 87.5C47.75 63.8239 52.5568 42.5869 60.1418 27.417C67.8464 12.0078 77.7501 4 87.5 4C97.2499 4 107.154 12.0078 114.858 27.417C122.443 42.5869 127.25 63.8239 127.25 87.5Z" stroke="#FF1744" stroke-width="8"/>
<path d="M171 87.5C171 111.176 166.193 132.413 158.608 147.583C150.904 162.992 141 171 131.25 171C121.5 171 111.596 162.992 103.892 147.583C96.3068 132.413 91.5 111.176 91.5 87.5C91.5 63.8239 96.3068 42.5869 103.892 27.417C111.596 12.0078 121.5 4 131.25 4C141 4 150.904 12.0078 158.608 27.417C166.193 42.5869 171 63.8239 171 87.5Z" stroke="#FF8A80" stroke-width="8"/>
<path d="M214.75 87.5C214.75 111.176 209.943 132.413 202.358 147.583C194.654 162.992 184.75 171 175 171C165.25 171 155.346 162.992 147.642 147.583C140.057 132.413 135.25 111.176 135.25 87.5C135.25 63.8239 140.057 42.5869 147.642 27.417C155.346 12.0078 165.25 4 175 4C184.75 4 194.654 12.0078 202.358 27.417C209.943 42.5869 214.75 63.8239 214.75 87.5Z" stroke="#FF1744" stroke-width="8"/>
<path d="M258.5 87.5C258.5 111.176 253.693 132.413 246.108 147.583C238.404 162.992 228.5 171 218.75 171C209 171 199.096 162.992 191.392 147.583C183.807 132.413 179 111.176 179 87.5C179 63.8239 183.807 42.5869 191.392 27.417C199.096 12.0078 209 4 218.75 4C228.5 4 238.404 12.0078 246.108 27.417C253.693 42.5869 258.5 63.8239 258.5 87.5Z" stroke="#FF8A80" stroke-width="8"/>
<path d="M302.25 87.5C302.25 111.176 297.443 132.413 289.858 147.583C282.154 162.992 272.25 171 262.5 171C252.75 171 242.846 162.992 235.142 147.583C227.557 132.413 222.75 111.176 222.75 87.5C222.75 63.8239 227.557 42.5869 235.142 27.417C242.846 12.0078 252.75 4 262.5 4C272.25 4 282.154 12.0078 289.858 27.417C297.443 42.5869 302.25 63.8239 302.25 87.5Z" stroke="#FF1744" stroke-width="8"/>
<path d="M346 87.5C346 111.176 341.193 132.413 333.608 147.583C325.904 162.992 316 171 306.25 171C296.5 171 286.596 162.992 278.892 147.583C271.307 132.413 266.5 111.176 266.5 87.5C266.5 63.8239 271.307 42.5869 278.892 27.417C286.596 12.0078 296.5 4 306.25 4C316 4 325.904 12.0078 333.608 27.417C341.193 42.5869 346 63.8239 346 87.5Z" stroke="#FF8A80" stroke-width="8"/>
</g>
<defs>
<clipPath id="clip0_4157_12662">
<rect width="350" height="175" fill="white"/>
</clipPath>
</defs>
</svg>
